/* XPM */
static char * bitcoin32_xpm[] = {
"32 32 532 2",
"  	c None",
". 	c #E6E3E6",
"+ 	c #D3D2D5",
"@ 	c #C9CACB",
"# 	c #C7C7C9",
"$ 	c #CFCFD1",
"% 	c #E1DFE1",
"& 	c #CFCCCF",
"* 	c #A0B4A2",
"= 	c #9FB192",
"- 	c #ADC3A0",
"; 	c #C8DBB5",
"> 	c #D9E9C6",
", 	c #DCEBC7",
"' 	c #CFE0BC",
") 	c #B8CCA8",
"! 	c #A3B595",
"~ 	c #AAB8A1",
"{ 	c #BCC4C1",
"] 	c #C9C9CA",
"^ 	c #91A68A",
"/ 	c #B8D5A7",
"( 	c #FFFCEF",
"_ 	c #FFFEFF",
": 	c #FCFDFE",
"< 	c #FCFCFD",
"[ 	c #FCFCFC",
"} 	c #FDFDFF",
"| 	c #FFFEFA",
"1 	c #E1ECC8",
"2 	c #9CB191",
"3 	c #B8C3BB",
"4 	c #E8E7E7",
"5 	c #9BAD9E",
"6 	c #B2D3A2",
"7 	c #FFFEFC",
"8 	c #FEFEFE",
"9 	c #F2F2F2",
"0 	c #ECECEC",
"a 	c #EDEDED",
"b 	c #EBEBEB",
"c 	c #EEEEEE",
"d 	c #FDFDFD",
"e 	c #E9EFCF",
"f 	c #94AC8F",
"g 	c #D9D8DA",
"h 	c #DEDEDE",
"i 	c #7B987A",
"j 	c #FBF7DE",
"k 	c #FFFFFF",
"l 	c #F8F8F8",
"m 	c #E2E2E2",
"n 	c #C1C1C2",
"o 	c #D0D0D0",
"p 	c #D3D3D3",
"q 	c #D2D2D2",
"r 	c #D4D4D4",
"s 	c #BFBFBF",
"t 	c #C6C6C6",
"u 	c #FFFDF9",
"v 	c #A0BF90",
"w 	c #CBCFCE",
"x 	c #DCDCDD",
"y 	c #6C936D",
"z 	c #FFFDF2",
"A 	c #E5E5E5",
"B 	c #C4C4C4",
"C 	c #CFCFCF",
"D 	c #C9C9C9",
"E 	c #C5C5C4",
"F 	c #C0C0BF",
"G 	c #C5C5C7",
"H 	c #C9C8C9",
"I 	c #C7C7C8",
"J 	c #C3C3C3",
"K 	c #D1D2D2",
"L 	c #BEBEBE",
"M 	c #F1F1F1",
"N 	c #FDFDFC",
"O 	c #FFFDFD",
"P 	c #B8D19F",
"Q 	c #CBCDCD",
"R 	c #E4E3E4",
"S 	c #78987B",
"T 	c #FFFCF0",
"U 	c #C1C1C1",
"V 	c #ACA6A1",
"W 	c #868483",
"X 	c #8E8B8F",
"Y 	c #939393",
"Z 	c #AEB1B1",
"` 	c #6E6F72",
" .	c #636567",
"..	c #A1A1A1",
"+.	c #98999B",
"@.	c #716D6C",
"#.	c #C6CACC",
"$.	c #E6E6E6",
"%.	c #FEFCFD",
"&.	c #A9C893",
"*.	c #DCDBDC",
"=.	c #98AB9D",
"-.	c #EEF3D0",
";.	c #BABABA",
">.	c #D5D5D5",
",.	c #D3D3D4",
"'.	c #D4D4D3",
").	c #D5D6D6",
"!.	c #D7D7D7",
"~.	c #D6D6D6",
"{.	c #D2D1D2",
"].	c #C7C8C8",
"^.	c #EAEAEA",
"/.	c #FDFCF8",
"(.	c #7CA77C",
"_.	c #EAE9EA",
":.	c #CCCBCD",
"<.	c #93C48D",
"[.	c #D1D1D1",
"}.	c #D8D6CE",
"|.	c #E7E3B9",
"1.	c #E7E2AD",
"2.	c #DBD9C1",
"3.	c #D1D1CF",
"4.	c #D2D2D3",
"5.	c #C6BF9F",
"6.	c #C4C0B1",
"7.	c #E5E0B1",
"8.	c #C8C8C8",
"9.	c #F6F6F6",
"0.	c #EEF1DE",
"a.	c #AEB3B1",
"b.	c #87A58B",
"c.	c #E8E8E8",
"d.	c #D1D2D1",
"e.	c #E4E1C5",
"f.	c #FFF9B2",
"g.	c #FFF9B1",
"h.	c #FFF8B0",
"i.	c #FEFAAF",
"j.	c #D0CEC4",
"k.	c #D3D2D2",
"l.	c #CAC8B5",
"m.	c #B8B193",
"n.	c #ADA17B",
"o.	c #D4D4D6",
"p.	c #BBBBBB",
"q.	c #FDFCFC",
"r.	c #99C488",
"s.	c #D4D1D4",
"t.	c #91BF8B",
"u.	c #FCF7B4",
"v.	c #FFFBB2",
"w.	c #FDF6AE",
"x.	c #FEF9B0",
"y.	c #FFF7AF",
"z.	c #FFFCB1",
"A.	c #CFCEC4",
"B.	c #D1D1D4",
"C.	c #ECE6A8",
"D.	c #FCF5AC",
"E.	c #E0DCAB",
"F.	c #D0CFD1",
"G.	c #F0F1DF",
"H.	c #BCBDBD",
"I.	c #A2B9AA",
"J.	c #EAF3D3",
"K.	c #D3D4D4",
"L.	c #F6F2B9",
"M.	c #E0DA9E",
"N.	c #EFEAA4",
"O.	c #B3A778",
"P.	c #EBE4A3",
"Q.	c #FDF5AD",
"R.	c #FFFAB1",
"S.	c #F8F4AD",
"T.	c #CECABA",
"U.	c #E1DDBD",
"V.	c #FEF9B1",
"W.	c #F1E397",
"X.	c #DAD3A4",
"Y.	c #C1C2C1",
"Z.	c #FCFCF9",
"`.	c #70A177",
" +	c #91B08F",
".+	c #FFFFFA",
"++	c #C7C6C7",
"@+	c #D5D2C6",
"#+	c #FAF5AD",
"$+	c #FEF7AF",
"%+	c #F7F1AB",
"&+	c #D0C891",
"*+	c #F5EFA9",
"=+	c #FCF3A8",
"-+	c #F0E6A2",
";+	c #EBE19E",
">+	c #EFE6A0",
",+	c #FFF6AD",
"'+	c #EFE9A8",
")+	c #4A4435",
"!+	c #5B5343",
"~+	c #625940",
"{+	c #CFCFD0",
"]+	c #FBFBFB",
"^+	c #ABCF92",
"/+	c #DFDFDE",
"(+	c #EBE9EA",
"_+	c #8AAF83",
":+	c #FFF8B1",
"<+	c #E9E29E",
"[+	c #FDF7AF",
"}+	c #9D916D",
"|+	c #EFE9A9",
"1+	c #C5BB88",
"2+	c #F1E8A0",
"3+	c #C7BF8A",
"4+	c #DACB8C",
"5+	c #FEF8B0",
"6+	c #F5E495",
"7+	c #F5EBA4",
"8+	c #E8E09D",
"9+	c #E0D794",
"0+	c #C7C6C8",
"a+	c #D0D0D1",
"b+	c #D1D1D0",
"c+	c #DBDBDB",
"d+	c #EBEBCB",
"e+	c #D9D9DA",
"f+	c #E0DCDF",
"g+	c #92BD8D",
"h+	c #F2F1F1",
"i+	c #DFDAB6",
"j+	c #F9F1A8",
"k+	c #998D69",
"l+	c #E5DD9E",
"m+	c #F5EEA7",
"n+	c #FAF3AE",
"o+	c #A59A70",
"p+	c #D2C991",
"q+	c #D2CB95",
"r+	c #827454",
"s+	c #F4E79F",
"t+	c #FDEFA1",
"u+	c #F5E392",
"v+	c #E9DE99",
"w+	c #AAA075",
"x+	c #C0B98F",
"y+	c #D3D4D6",
"z+	c #F3F3E1",
"A+	c #C8C7C8",
"B+	c #D5D1D5",
"C+	c #A0CB98",
"D+	c #D2D2D0",
"E+	c #FFFAB0",
"F+	c #F0E395",
"G+	c #CCCCCB",
"H+	c #E0D391",
"I+	c #E8DF9C",
"J+	c #897C52",
"K+	c #EBE6A5",
"L+	c #595344",
"M+	c #6B5F43",
"N+	c #F7F0AA",
"O+	c #F9E592",
"P+	c #FFF3A5",
"Q+	c #D0C487",
"R+	c #E2DA97",
"S+	c #D6CB89",
"T+	c #C1BC9C",
"U+	c #C4C2C3",
"V+	c #F6F7EC",
"W+	c #B8B9B9",
"X+	c #D3CFD3",
"Y+	c #A2CD9C",
"Z+	c #DCD7B7",
"`+	c #F0F0F0",
" @	c #E3DDA5",
".@	c #FCF4AA",
"+@	c #BCB8B2",
"@@	c #D3D0C0",
"#@	c #FCF3A6",
"$@	c #7F724F",
"%@	c #C8C18C",
"&@	c #D6D192",
"*@	c #D2D2D1",
"=@	c #ADABAD",
"-@	c #E0DA9B",
";@	c #CAC38C",
">@	c #736E6A",
",@	c #ACA581",
"'@	c #8F8664",
")@	c #BCB9B4",
"!@	c #CFCED0",
"~@	c #F7F7EE",
"{@	c #B5B8B7",
"]@	c #DCD8DB",
"^@	c #95C090",
"/@	c #D2CEBA",
"(@	c #E8E5C7",
"_@	c #D0D0D5",
":@	c #CFCFD3",
"<@	c #E3DFB7",
"[@	c #FEF4A5",
"}@	c #B0ABA4",
"|@	c #948A66",
"1@	c #CCC591",
"2@	c #B1AC83",
"3@	c #4F4949",
"4@	c #FFFDB2",
"5@	c #C7C6C9",
"6@	c #E8E3B9",
"7@	c #DAD7B6",
"8@	c #CDCDCD",
"9@	c #F3F2E3",
"0@	c #C5C4C5",
"a@	c #E7E4E7",
"b@	c #8AB284",
"c@	c #FEFDFF",
"d@	c #B9B490",
"e@	c #FFF8B4",
"f@	c #FFF9B4",
"g@	c #8A8156",
"h@	c #B0AAA2",
"i@	c #F2E9A5",
"j@	c #B6AD7F",
"k@	c #E9E4A4",
"l@	c #B9B38C",
"m@	c #D5D5D6",
"n@	c #B5AF83",
"o@	c #CDCCC2",
"p@	c #DFDCBB",
"q@	c #CBCABE",
"r@	c #CECDCE",
"s@	c #CBC9CA",
"t@	c #E7E7E7",
"u@	c #EFEDD1",
"v@	c #D8D7D8",
"w@	c #93B28F",
"x@	c #FFFFFE",
"y@	c #BEBAB0",
"z@	c #A6A19B",
"A@	c #D2D1D1",
"B@	c #E4DFAD",
"C@	c #E9DD95",
"D@	c #D2CA94",
"E@	c #BBB17D",
"F@	c #D2D3D3",
"G@	c #BBBBBF",
"H@	c #BFB990",
"I@	c #B4AD8E",
"J@	c #C2C1C1",
"K@	c #CECECE",
"L@	c #D8D8D8",
"M@	c #CBCBCB",
"N@	c #B6D49A",
"O@	c #E1E1E1",
"P@	c #A3BCAB",
"Q@	c #F4F6DB",
"R@	c #E4E4E4",
"S@	c #CAC9C9",
"T@	c #BFBEBF",
"U@	c #D1D1CD",
"V@	c #E4D892",
"W@	c #B3B1A7",
"X@	c #CBC4A0",
"Y@	c #CEC8A0",
"Z@	c #D6D7D9",
"`@	c #E2DCA5",
" #	c #999591",
".#	c #DBDBDC",
"+#	c #CECDCD",
"@#	c #DDDDDD",
"##	c #C1BFC0",
"$#	c #FEFDFC",
"%#	c #76A879",
"&#	c #D2D0D2",
"*#	c #97C790",
"=#	c #A5A4A5",
"-#	c #A7A6A6",
";#	c #D2D1D0",
">#	c #FDF6A9",
",#	c #C4C3C3",
"'#	c #C1BAA4",
")#	c #CBC8A1",
"!#	c #CFCECE",
"~#	c #C3C2C3",
"{#	c #D4D4D5",
"]#	c #A9A496",
"^#	c #807C7B",
"/#	c #D6D7D7",
"(#	c #C0C0C0",
"_#	c #B7B7B7",
":#	c #BDBDBD",
"<#	c #E8E7E8",
"[#	c #F5F6E8",
"}#	c #B2B8B5",
"|#	c #ECEBEB",
"1#	c #91B091",
"2#	c #FFFEF8",
"3#	c #E3E3E3",
"4#	c #DDDCDD",
"5#	c #FEF7AE",
"6#	c #BAB9B9",
"7#	c #C1BEAF",
"8#	c #CCC699",
"9#	c #BFBDBE",
"0#	c #D0CFD0",
"a#	c #BCBABB",
"b#	c #AAAAAA",
"c#	c #A6A6A6",
"d#	c #C7C7C7",
"e#	c #B2B2B2",
"f#	c #AECD95",
"g#	c #E2E1E2",
"h#	c #CACCCD",
"i#	c #A3CD96",
"j#	c #949393",
"k#	c #AEAEAF",
"l#	c #E8E3A0",
"m#	c #C8C6C3",
"n#	c #B1AD9D",
"o#	c #D7D29C",
"p#	c #C0BFC0",
"q#	c #ADADAD",
"r#	c #BBBABA",
"s#	c #C7C6C6",
"t#	c #D9D9D9",
"u#	c #DADADA",
"v#	c #C5C3C4",
"w#	c #A7A7A7",
"x#	c #969696",
"y#	c #F6F6E9",
"z#	c #97A99F",
"A#	c #9FB4A1",
"B#	c #F4F6DE",
"C#	c #8C8C89",
"D#	c #E3DD9D",
"E#	c #D3D1CD",
"F#	c #7C736B",
"G#	c #AAA89E",
"H#	c #A8A8A8",
"I#	c #B6B6B6",
"J#	c #ACABAB",
"K#	c #9D9D9D",
"L#	c #B1AFB0",
"M#	c #B2B0B1",
"N#	c #B8B7B7",
"O#	c #A3A3A3",
"P#	c #B7B6B6",
"Q#	c #A9A9A9",
"R#	c #B8B8B8",
"S#	c #FFFFFD",
"T#	c #92B985",
"U#	c #E9E8E9",
"V#	c #DDDBDD",
"W#	c #7FAA80",
"X#	c #FFFEF7",
"Y#	c #F0EEEB",
"Z#	c #E3DD9F",
"`#	c #7D7D7E",
" $	c #C5C4C2",
".$	c #9A9A9A",
"+$	c #868485",
"@$	c #878686",
"#$	c #929292",
"$$	c #A6A5A6",
"%$	c #979797",
"&$	c #C2D4A9",
"*$	c #D3CED2",
"=$	c #D6D5D5",
"-$	c #7BB37C",
";$	c #FFFEF9",
">$	c #F4F3F1",
",$	c #AAA8A9",
"'$	c #AFAFAF",
")$	c #DFDFDF",
"!$	c #8F8F8F",
"~$	c #AEAEAE",
"{$	c #B9B9B9",
"]$	c #CEDEB9",
"^$	c #B2B8B8",
"/$	c #D7D6D7",
"($	c #7EAE7C",
"_$	c #F9FCF0",
":$	c #C5C5C5",
"<$	c #6F6F6F",
"[$	c #CFCECF",
"}$	c #9F9F9F",
"|$	c #B4B4B4",
"1$	c #F5F5F5",
"2$	c #C4D5AB",
"3$	c #B6BABA",
"4$	c #DBDADB",
"5$	c #7EA085",
"6$	c #E5E9C8",
"7$	c #DCDDDD",
"8$	c #DEDDDE",
"9$	c #FCFDFD",
"0$	c #F7F8EB",
"a$	c #9BB98A",
"b$	c #D5D3D7",
"c$	c #E7E6E6",
"d$	c #CACBCC",
"e$	c #81B17C",
"f$	c #EDEDD2",
"g$	c #FEFEFB",
"h$	c #DBDBD8",
"i$	c #4F5053",
"j$	c #9C9D9B",
"k$	c #7F7F7F",
"l$	c #DEDFE1",
"m$	c #F6F7EA",
"n$	c #B7CE9C",
"o$	c #9DACA2",
"p$	c #E9E8E8",
"q$	c #E3E3E4",
"r$	c #7B9C82",
"s$	c #A4C48E",
"t$	c #E9EBC8",
"u$	c #F7F5E2",
"v$	c #FAFAF0",
"w$	c #FCFCF2",
"x$	c #F8F6E9",
"y$	c #F2EFD4",
"z$	c #C3D6A4",
"A$	c #84A680",
"B$	c #B9BBBB",
"C$	c #D4D3D3",
"D$	c #C5C5C6",
"E$	c #C3C3C4",
"F$	c #CDCDCC",
"G$	c #E2E3E2",
"                          . + @ # $ %                           ",
"                    & * = - ; > , ' ) ! ~ {                     ",
"                ] ^ / ( _ : < [ [ [ < } | 1 2 3                 ",
"            4 5 6 7 < [ 8 9 0 a b 0 c d 8 [ _ e f g             ",
"          h i j k k l m n o p p q p r s t b d < u v w           ",
"        x y z k k A B C D t E F G H I J t K L M N O P Q         ",
"      R S T k 8 U p q V W X Y Z `  ...+.@.#.p s $.d %.&.*.      ",
"      =.-.k 8 ;.q q q >.>.,.'.,.>.).!.~.>.'.{.{.].^.[ /.(._.    ",
"    :.<.k k J q q q q [.[.q }.|.1.2.3.q p 4.5.6.7.8.9.[ 0.a.    ",
"    b.T k c.r q q [.q d.e.f.g.h.g.g.i.j.k.4.l.m.n.o.p.k q.r.m   ",
"  s.t.k d s q q q q q u.g.g.v.w.g.x.y.z.A.k.B.C.D.E.F.!.[ G.H.  ",
"  I.J.k ^.K.q q q q L.M.N.O.P.Q.g.R.h.h.S.T.U.Q.V.W.X.Y.8 Z.`.  ",
"   +.+k ++q [.q q @+#+$+%+&+*+=+-+;+>+,+g.g.g.'+)+!+~+{+]+[ ^+/+",
"(+_+k [ B [.[.q 3.:+<+[+}+|+1+2+3+4+5+[+6+7+8+9+0+p a+b+c+[ d+e+",
"f+g+k h+[.q q q i+j+k+l+m+n+o+p+q+r+s+t+u+v+w+x+y+q [.q 8.[ z+A+",
"B+C+k c p p q D+E+F+G+H+I+J+K+L+M+N+O+P+Q+R+S+T+p q q q U+[ V+W+",
"X+Y+Z+`+q o a+ @.@+@@@#@$@%@&@*@=@-@;@>@,@'@)@!@q [.[.q ++[ ~@{@",
"]@^@/@(@_@:@<@[@}@F.v.|@1@2@t q >.3@4@5@6@7@4.q q q [.q 8@[ 9@0@",
"a@b@c@d@e@f@g@h@,.i@j@k@l@4.q q q m@n@o@p@q@q q >.r@q s@t@[ u@v@",
"0 w@x@k y@z@@ A@B@C@D@E@F@q q q q q G@H@I@J@k.o K@v@L@M@k d N@O@",
"  P@Q@k R@S@T@U@V@W@X@Y@K q K@q q q Z@`@ #.#~.+#o @#M@##k $#%#  ",
"  &#*#k [ =#-#;#>#,#'#)#q !#~#[.r@{#]#^#/#K.(#_#:#C o <#k [#}#  ",
"  |#1#2#k 3#3#4#5#6#7#8#q ,#L o 9#[.p p 0#a#[.b#c#d#e#k k f#g#  ",
"    h#i#k k j#k#l#m#n#o#B p#M@q#+#r#s#t#u#v#O@>.w#x#8 k y#z#    ",
"    b A#B#k k C#D#E#F#G#H#I#J#K#L#M#N#s O#P#Q#R#t t@k S#T#U#    ",
"      V#W#X#k Y#Z#`# $.#e#@#.$+$@$_##$$$%$U s L b k k &$*$      ",
"        =$-$;$>$,$U '$M@B )$K@!$c#L@'$~$U {$~$8 k k ]$^$        ",
"          /$($_$k k k :$b#.$s <$L [$}$8.|$1$k k S#2$3$          ",
"            4$5$6$S#k 8 k k h 7$h 8$9$k k k k 0$a$b$            ",
"              c$d$e$f$g$k k h$i$j$k$l$k S#m$n$o$p$              ",
"                  q${+r$s$t$u$v$w$x$y$z$A$B$R                   ",
"                        R@c+C$D$E$F$u#G$                        "};
