/* XPM */
static char * bitcoin16_xpm[] = {
"16 16 185 2",
"  	c None",
". 	c #D6DAD7",
"+ 	c #CCD4C4",
"@ 	c #CED6C6",
"# 	c #CFD7C8",
"$ 	c #CFD7C7",
"% 	c #D1D9D1",
"& 	c #E1E3E1",
"* 	c #BBC8B4",
"= 	c #F3F8E8",
"- 	c #FFFFFF",
"; 	c #F4F3F5",
"> 	c #F4F4F5",
", 	c #FDFCFE",
"' 	c #FFFFF7",
") 	c #C4D2BD",
"! 	c #D7DCD6",
"~ 	c #CFD5CE",
"{ 	c #D2E1C8",
"] 	c #FCFBFE",
"^ 	c #D9D9D9",
"/ 	c #C2C2C2",
"( 	c #C8C7C7",
"_ 	c #C7C7C7",
": 	c #C8C8C8",
"< 	c #EBEBEC",
"[ 	c #F1F5E5",
"} 	c #C7D0C5",
"| 	c #DFE1DF",
"1 	c #CDDEC4",
"2 	c #F3F3F4",
"3 	c #CBCBCB",
"4 	c #C8C8C7",
"5 	c #A4A4A5",
"6 	c #A1A0A3",
"7 	c #959497",
"8 	c #AEB0B1",
"9 	c #9FA1A3",
"0 	c #D2D2D3",
"a 	c #E4E4E5",
"b 	c #F6F8EB",
"c 	c #DBE0DB",
"d 	c #B1C4AC",
"e 	c #FEFDFF",
"f 	c #CACACA",
"g 	c #D2D2D2",
"h 	c #DCDACA",
"i 	c #F4EFB7",
"j 	c #F6F0B2",
"k 	c #D9D8C7",
"l 	c #C3BC96",
"m 	c #CFCDC0",
"n 	c #EEEEEE",
"o 	c #B8CDAC",
"p 	c #DADDDC",
"q 	c #E1F0D8",
"r 	c #DDDDDD",
"s 	c #EAE5BA",
"t 	c #FCF6AE",
"u 	c #F7F0A9",
"v 	c #FFFAB1",
"w 	c #FFF8B0",
"x 	c #D7D5C7",
"y 	c #E4E0BA",
"z 	c #D9D091",
"A 	c #C4C2BC",
"B 	c #DCE1DA",
"C 	c #BDCEB9",
"D 	c #C9C9C9",
"E 	c #DBD9C9",
"F 	c #E0D797",
"G 	c #DED79A",
"H 	c #EBE4A1",
"I 	c #D7CE92",
"J 	c #FAF2A9",
"K 	c #F9EFA6",
"L 	c #F3EDA6",
"M 	c #949192",
"N 	c #ADACAB",
"O 	c #F8F7F9",
"P 	c #B3C1B3",
"Q 	c #BDCEB8",
"R 	c #FBF8FB",
"S 	c #D1D1D1",
"T 	c #D0D0D1",
"U 	c #F3EBA4",
"V 	c #9F9784",
"W 	c #F4EEA8",
"X 	c #A39970",
"Y 	c #C4B986",
"Z 	c #F4E89F",
"` 	c #E7D990",
" .	c #BEB683",
"..	c #D2D2D1",
"+.	c #F5F5F6",
"@.	c #B1C7AB",
"#.	c #BECFBC",
"$.	c #DFD9C4",
"%.	c #D1D0D0",
"&.	c #E1DDB8",
"*.	c #B9B29C",
"=.	c #EBE4A5",
"-.	c #BDB686",
";.	c #C1C0B9",
">.	c #9C9A91",
",.	c #C2BEA1",
"'.	c #DAD599",
").	c #D3D4D5",
"!.	c #F6F6F6",
"~.	c #B0C6AA",
"{.	c #BCCDB8",
"].	c #F9F6F3",
"^.	c #CBC38E",
"/.	c #9D9B9B",
"(.	c #DCD6AD",
"_.	c #C6BF8B",
":.	c #CACAC8",
"<.	c #D1D1D2",
"[.	c #AFAA89",
"}.	c #CAC6A6",
"|.	c #D8D7D7",
"1.	c #D3D2D3",
"2.	c #F8F8FA",
"3.	c #B1C2B2",
"4.	c #D6DCD8",
"5.	c #E8F4DE",
"6.	c #D1D0D1",
"7.	c #BBBBB8",
"8.	c #E5DEA9",
"9.	c #E0DAA9",
"0.	c #CECECE",
"a.	c #9E9883",
"b.	c #D3D4D4",
"c.	c #D5D5D5",
"d.	c #D6D6D6",
"e.	c #C1BFC0",
"f.	c #DEE3DB",
"g.	c #B9CCB4",
"h.	c #FDFDFF",
"i.	c #A4A4A6",
"j.	c #F0EBB4",
"k.	c #DBD6AC",
"l.	c #C4C4C6",
"m.	c #CECDCE",
"n.	c #C9C8C9",
"o.	c #DCDCDC",
"p.	c #BFBFBF",
"q.	c #F8F8F8",
"r.	c #BED3B1",
"s.	c #DADEDC",
"t.	c #D9E9CD",
"u.	c #E7E6E4",
"v.	c #CCC799",
"w.	c #A39F98",
"x.	c #929292",
"y.	c #A9A7A8",
"z.	c #A1A0A1",
"A.	c #B0AFB0",
"B.	c #EAEAEA",
"C.	c #FFFFFC",
"D.	c #DADFD9",
"E.	c #C8D1C9",
"F.	c #DFE9D0",
"G.	c #F9F8F8",
"H.	c #ABABAB",
"I.	c #A4A4A4",
"J.	c #BABABA",
"K.	c #B6B6B6",
"L.	c #C4C4C4",
"M.	c #B5B5B5",
"N.	c #FFFFFB",
"O.	c #C2CAC1",
"P.	c #B2C8A8",
"Q.	c #F9F8FA",
"R.	c #C5C4C3",
"S.	c #ADAEAC",
"T.	c #FBFBFC",
"U.	c #C3D5B5",
"V.	c #DCDFDA",
"W.	c #DFE3DD",
"X.	c #BFC7BD",
"Y.	c #B0BFA8",
"Z.	c #B4C1AC",
"`.	c #BAC6B9",
" +	c #E0E3DE",
"          . + @ # $ %           ",
"      & * = - ; > , ' ) !       ",
"    ~ { ] ^ / / ( _ : < [ }     ",
"  | 1 2 3 4 5 6 7 8 9 0 a b c   ",
"  d e f g g h i j k g l m n o   ",
"p q r g g s t u v w x y z A - B ",
"C - D g E F G H I J K L M N O P ",
"Q R S T U V W X Y Z `  ...g +.@.",
"#.$.%.&.*.=.-.;.>.,.'.).S g !.~.",
"{.].^./.(._.:.g <.[.}.g |.1.2.3.",
"4.5.6.7.8.9.<.0...a.b.c.d.e.- f.",
"  g.h.i.j.k.l.m.m.g n.o.p.q.r.  ",
"  s.t.u.v.w.S x.y.z.A.: B.C.D.  ",
"    E.F.G.H.I.J.K.L.M.q.N.O.    ",
"      | P.- Q.R.S.T.- U.V.      ",
"          W.X.Y.Z.`. +          "};
